<mxfile host="65bd71144e">
    <diagram id="3QK0CcALdnH0GCx-0drF" name="Page-1">
        <mxGraphModel dx="2014" dy="1150" grid="1" gridSize="10" guides="1" tooltips="1" connect="1" arrows="1" fold="1" page="1" pageScale="1" pageWidth="850" pageHeight="1100" math="0" shadow="0">
            <root>
                <mxCell id="0"/>
                <mxCell id="1" parent="0"/>
                <mxCell id="2" style="edgeStyle=orthogonalEdgeStyle;rounded=0;orthogonalLoop=1;jettySize=auto;html=1;" edge="1" parent="1" source="3" target="4">
                    <mxGeometry relative="1" as="geometry"/>
                </mxCell>
                <mxCell id="3" value="" style="shape=image;verticalLabelPosition=bottom;labelBackgroundColor=default;verticalAlign=top;aspect=fixed;imageAspect=0;image=data:image/jpeg,/9j/4AAQSkZJRgABAQAAAQABAAD/2wCEAAkGBwgHBgkIBwgKCgkLDRYPDQwMDRsUFRAWIB0iIiAdHx8kKDQsJCYxJx8fLT0tMTU3Ojo6Iys/RD84QzQ5OjcBCgoKDQwNGg8PGjclHyU3Nzc3Nzc3Nzc3Nzc3Nzc3Nzc3Nzc3Nzc3Nzc3Nzc3Nzc3Nzc3Nzc3Nzc3Nzc3Nzc3N//AABEIAIEAwgMBIgACEQEDEQH/xAAcAAEAAgMBAQEAAAAAAAAAAAAABQcBBAYDAgj/xAA0EAABAwMCBAQFAgYDAAAAAAABAAIDBAUREiEGMUFREyJhcRQygZGhB7EVQsHR4fAjYvH/xAAYAQEBAQEBAAAAAAAAAAAAAAAAAgEDBP/EAB0RAQEAAgIDAQAAAAAAAAAAAAABAhESIQMxUUH/2gAMAwEAAhEDEQA/ALxREQEREBERARFr11XHQ0slTNnQwb4GTzwg2EWrbrhT3Kn8elfqZnSehaexHdbSAiwTgZOwHNaFBeKS4TyRUzy7QCdWNnAHGxQSCIiAiIgIiICIiAiIgIiICIiAiIgIiICIiAoviRpdZqjHMaXfZwKlFE8WTfD8NXKYN1ujp3Oa3u4Db84Rs9uFpL83hu6Colc51FVENnY3ctd0cB+PY+i6qPjzhl4iLbrH/wAoy0Fj/wA7bKqaiNtbSxNq2OMxxqJy4MyT0H7rS/hFS2FuI5HMEjsNI8w0nBHbfGQo5druKy+IuNaGuabVZ6kvllf4csuC0NbgEhpPMnIH3Uhwa0CpkEfyMi05x6j+yrSktnwdY+aaIySNkcDhhAOQHEtJ6DOMnqF336bVEj5blTzMcDE5vhvJ+dpz06brZS46ju0RFTmIiICIiAiIgIiICIiAiIgIiICIiAiIgKP4gidPY6+JgJc6B+AOZ2UgvmRoexzXDLSMFBRJonS0zYbhJ5ngSEhwzEd/IW4wQMg79QtuGR0LXUU8glNM9xjlwfPEQDjkOR1Y7chsp6K2UNmuk1HPSM0OJLZnNyHb7avVe1y4egroaUimdM9koLpmPbl0f8zT3B/8IXG42+neZT9c3FA2edt1qXanPc8xU7XadLCSGjV2xpwNxz6ldd+nEdZDcLpDVZe0NYWv2Ld8+XPUjl9Ata7RUFO0xmn1veMR07MeXG23b2Xj+nF4paa711q8kbJpNUJDjpLwN2jP+591uM17Zn3OlnIsZWV1cRERAREQEREBERAREQEREBERAREQEREBY6LKweSCueK6zXepRBMWSRO0mM4LXkDnjmop1bc4oiIgWFzTuRgArc4st7ouKKio0PkikAfhhBcx2NyBzx1WrPcZvB8Oki8QBo8r+Y7LjluO+M3HO3Gqr3MljBLp3NBHhgAZzzJ+6jqZrqOnlmMzmSRsMrS3mJOhHtt9F0VPBcJWSSS00NtpiRlxIc530URxBTyQxRw0dE58XNz5BiSV3fHRv5JW4lWnwbxxQ3/FFPJHBdGt80TnDEoG2pnf25j8rrhuvzLSU74qqg8QmOobMS0tO7XY5gj7q+OBr0682Jj6iTXVwHwpzjm4dfqF0lcspp0aIi1IiIgIiICIiAiIgIiICIiAiIgIiICIiDkeNKYQ1MFx0DDYnRudtnJIwN/qudjqKeXXUDfw2and3csYXdcTUbqy0yMYAXsIeAeuOf4yq51vpqgRMjOgO3bjpyXn8s7ejxXp5suUM4mfPCaWqY4tbG5uefXIz+yjL5NcaU6I4zUTS7a2Za1h9eym6qifJPFNC97JwdTHNwcjG4OFGXCz3iaJzJLhH4MnzPxhzPp/lbhfwy+uVtLZ4rg2WtaGuc9zWsccg5PMYVhcAVYt9++Fc4htUTGMfKXYLh+35VfUZe24RtlyfhnGPU7q4EDOfY5XS0Uj6eSjrYcamyvnbvnBx/ldIirvRaVnr47pa6SvhyI6iJsgB6ZHJbqtyEREBERAREQEREBERAREQEREBERAREQfLxqBB5EYVL1sVwtl6NPc3RujL3RxyNJ6/LnJPdXSVVfHN6t9PWGO5QuLJXlocG7AA4znvuoym14XVeN0mqKG3VVXQQ+NPs5kerAJcB6eq5qqh41ki1SPjeCdWhrxtn3+y2rdxRA2qip6qoEkReAyVoHy9iOi3L5xDDPQyRWplQ+QuAMmnSwDvk7KZjqrtQj7bWeFCLg2EzyvPiOY7fRjOD3/AKKTAMtAZI2+G1zBDDnqANyPfCjLXR00ro52uknkdkSOkfqDyMbAnAIG6maisgMhY2UNnI0NfkEMHLYbAK2LH/T5+vhimHJjHvYwdmhxAC6VQPBLI4+GqJsTS0Yd5S4OwdRzuFPKnOiIiMEREBERAREQEREBERAREQEREBERBgqv7nRUc1bPFXRMlLZMsa8AgF3L6rvZpWQsL5XhjBzJVe3i8U0nE/w9A6OcSROcXsbqMTw3t16/dRkvBzFw4Fs7rlTupmvjfLOPKHEgNzk4HsCpG42d5pTQ2mSnNJq1OEzScb5wcf26Lcip6Snr6erbFM2Vwc8yPLiWjSSRj+i+K+2QVUjZpJ5mSmMF3gOdHy/3qslWh3WuokmdTzVD5GsaGksaGDPYbbDc4WlcaGWFp0yxsDDpYNGs79h1d7qTs91gnilkknLGZ+fBLvT1J/soriXiVksLKSkjqo48+UtIY9/LcnmpxnfbcvXTvv0rrXyUVXRSMmb4Lw9vjY1HVz2HLcLsLhdbfbYnS3Ctp6aNoyXSyBuPuvz3QzXOlilZQVNRQvqMHTTSOD5QD1ccHr0UnRWqdj4qyTcTODZhOc9eeSfRdduel2UF9tNxj10Fzo6hveKZrv2KkA4EZByPRUNQW9trv2qhaRBICX4wAT03XhYLjX0fF9dPRz1LYGMOYvGOjPUYzgrWcX6AysOe1oLnEADmSqNtP6n3mWsufj1IeynJEUXhN3O/M46LgLtxZxVxdXR0bq2snfM7TFSwEtBPo1uM/VGafquGtpaiQxwVMMj2jJayQEgewWwqW/TD9KrxZ7vS329V3w0kQ1fCQvLnOyOT3A4x6DPJXSOSMEREBERAREQEREBERAQ8kRBx/G0lQ+pp6Y08ktK5pcfDhc/cdyAcLjhSxWWM/CwNjq5hre6YHJ2zge3JXAWgrVqLZRVBzPSwyH/swFTcdrxz0qa2XOrmqZZHzxS1ccYa2KN/lZq/mxucLFqlqRI4zROa6cOaZAQcADmTjllWi/h+2HHh0rISORiGk/jmvMcN28nMjZJB2L8D8YU8L9VznxVdotkAt0MZbpmhh8+JNmvI+b6YW1/Dqu9Flsgo6ufRGHmtw0Rg7HSX8ifZW2KOnBB8CLOMZLAvYNwABsB0AW8Iy+SuK4Y4IFCZJbsY55HY0tDicepOBkrqobZQwnMdJAD38MZ+63EVSaRbt8iNgGAxoHsvl0MTvmiYfdoXoi1iLqOHLJUuLp7TRPcebjA3J+uFrW3hDh+1VvxlttNNTVGMeJE3SVOogwFlEQEREBERAREQEREBERAREQEREBERAREQEREBERAREQEREBERAREQf//Z;" vertex="1" parent="1">
                    <mxGeometry x="480" y="200" width="194" height="129" as="geometry"/>
                </mxCell>
                <mxCell id="4" value="" style="shape=image;verticalLabelPosition=bottom;labelBackgroundColor=default;verticalAlign=top;aspect=fixed;imageAspect=0;image=data:image/jpeg,/9j/4AAQSkZJRgABAQAAAQABAAD/2wCEAAkGBwgHBgkIBwgKCgkLDRYPDQwMDRsUFRAWIB0iIiAdHx8kKDQsJCYxJx8fLT0tMTU3Ojo6Iys/RD84QzQ5OjcBCgoKDQwNGg8PGjclHyU3Nzc3Nzc3Nzc3Nzc3Nzc3Nzc3Nzc3Nzc3Nzc3Nzc3Nzc3Nzc3Nzc3Nzc3Nzc3Nzc3N//AABEIAIEAwgMBIgACEQEDEQH/xAAcAAEAAgMBAQEAAAAAAAAAAAAABQcBBAYDAgj/xAA0EAABAwMCBAQFAgYDAAAAAAABAAIDBAUREiEGMUFREyJhcRQygZGhB7EVQsHR4fAjYvH/xAAYAQEBAQEBAAAAAAAAAAAAAAAAAgEDBP/EAB0RAQEAAgIDAQAAAAAAAAAAAAABAhESIQMxUUH/2gAMAwEAAhEDEQA/ALxREQEREBERARFr11XHQ0slTNnQwb4GTzwg2EWrbrhT3Kn8elfqZnSehaexHdbSAiwTgZOwHNaFBeKS4TyRUzy7QCdWNnAHGxQSCIiAiIgIiICIiAiIgIiICIiAiIgIiICIiAoviRpdZqjHMaXfZwKlFE8WTfD8NXKYN1ujp3Oa3u4Db84Rs9uFpL83hu6Colc51FVENnY3ctd0cB+PY+i6qPjzhl4iLbrH/wAoy0Fj/wA7bKqaiNtbSxNq2OMxxqJy4MyT0H7rS/hFS2FuI5HMEjsNI8w0nBHbfGQo5druKy+IuNaGuabVZ6kvllf4csuC0NbgEhpPMnIH3Uhwa0CpkEfyMi05x6j+yrSktnwdY+aaIySNkcDhhAOQHEtJ6DOMnqF336bVEj5blTzMcDE5vhvJ+dpz06brZS46ju0RFTmIiICIiAiIgIiICIiAiIgIiICIiAiIgKP4gidPY6+JgJc6B+AOZ2UgvmRoexzXDLSMFBRJonS0zYbhJ5ngSEhwzEd/IW4wQMg79QtuGR0LXUU8glNM9xjlwfPEQDjkOR1Y7chsp6K2UNmuk1HPSM0OJLZnNyHb7avVe1y4egroaUimdM9koLpmPbl0f8zT3B/8IXG42+neZT9c3FA2edt1qXanPc8xU7XadLCSGjV2xpwNxz6ldd+nEdZDcLpDVZe0NYWv2Ld8+XPUjl9Ata7RUFO0xmn1veMR07MeXG23b2Xj+nF4paa711q8kbJpNUJDjpLwN2jP+591uM17Zn3OlnIsZWV1cRERAREQEREBERAREQEREBERAREQEREBY6LKweSCueK6zXepRBMWSRO0mM4LXkDnjmop1bc4oiIgWFzTuRgArc4st7ouKKio0PkikAfhhBcx2NyBzx1WrPcZvB8Oki8QBo8r+Y7LjluO+M3HO3Gqr3MljBLp3NBHhgAZzzJ+6jqZrqOnlmMzmSRsMrS3mJOhHtt9F0VPBcJWSSS00NtpiRlxIc530URxBTyQxRw0dE58XNz5BiSV3fHRv5JW4lWnwbxxQ3/FFPJHBdGt80TnDEoG2pnf25j8rrhuvzLSU74qqg8QmOobMS0tO7XY5gj7q+OBr0682Jj6iTXVwHwpzjm4dfqF0lcspp0aIi1IiIgIiICIiAiIgIiICIiAiIgIiICIiDkeNKYQ1MFx0DDYnRudtnJIwN/qudjqKeXXUDfw2and3csYXdcTUbqy0yMYAXsIeAeuOf4yq51vpqgRMjOgO3bjpyXn8s7ejxXp5suUM4mfPCaWqY4tbG5uefXIz+yjL5NcaU6I4zUTS7a2Za1h9eym6qifJPFNC97JwdTHNwcjG4OFGXCz3iaJzJLhH4MnzPxhzPp/lbhfwy+uVtLZ4rg2WtaGuc9zWsccg5PMYVhcAVYt9++Fc4htUTGMfKXYLh+35VfUZe24RtlyfhnGPU7q4EDOfY5XS0Uj6eSjrYcamyvnbvnBx/ldIirvRaVnr47pa6SvhyI6iJsgB6ZHJbqtyEREBERAREQEREBERAREQEREBERAREQfLxqBB5EYVL1sVwtl6NPc3RujL3RxyNJ6/LnJPdXSVVfHN6t9PWGO5QuLJXlocG7AA4znvuoym14XVeN0mqKG3VVXQQ+NPs5kerAJcB6eq5qqh41ki1SPjeCdWhrxtn3+y2rdxRA2qip6qoEkReAyVoHy9iOi3L5xDDPQyRWplQ+QuAMmnSwDvk7KZjqrtQj7bWeFCLg2EzyvPiOY7fRjOD3/AKKTAMtAZI2+G1zBDDnqANyPfCjLXR00ro52uknkdkSOkfqDyMbAnAIG6maisgMhY2UNnI0NfkEMHLYbAK2LH/T5+vhimHJjHvYwdmhxAC6VQPBLI4+GqJsTS0Yd5S4OwdRzuFPKnOiIiMEREBERAREQEREBERAREQEREBERBgqv7nRUc1bPFXRMlLZMsa8AgF3L6rvZpWQsL5XhjBzJVe3i8U0nE/w9A6OcSROcXsbqMTw3t16/dRkvBzFw4Fs7rlTupmvjfLOPKHEgNzk4HsCpG42d5pTQ2mSnNJq1OEzScb5wcf26Lcip6Snr6erbFM2Vwc8yPLiWjSSRj+i+K+2QVUjZpJ5mSmMF3gOdHy/3qslWh3WuokmdTzVD5GsaGksaGDPYbbDc4WlcaGWFp0yxsDDpYNGs79h1d7qTs91gnilkknLGZ+fBLvT1J/soriXiVksLKSkjqo48+UtIY9/LcnmpxnfbcvXTvv0rrXyUVXRSMmb4Lw9vjY1HVz2HLcLsLhdbfbYnS3Ctp6aNoyXSyBuPuvz3QzXOlilZQVNRQvqMHTTSOD5QD1ccHr0UnRWqdj4qyTcTODZhOc9eeSfRdduel2UF9tNxj10Fzo6hveKZrv2KkA4EZByPRUNQW9trv2qhaRBICX4wAT03XhYLjX0fF9dPRz1LYGMOYvGOjPUYzgrWcX6AysOe1oLnEADmSqNtP6n3mWsufj1IeynJEUXhN3O/M46LgLtxZxVxdXR0bq2snfM7TFSwEtBPo1uM/VGafquGtpaiQxwVMMj2jJayQEgewWwqW/TD9KrxZ7vS329V3w0kQ1fCQvLnOyOT3A4x6DPJXSOSMEREBERAREQEREBERAQ8kRBx/G0lQ+pp6Y08ktK5pcfDhc/cdyAcLjhSxWWM/CwNjq5hre6YHJ2zge3JXAWgrVqLZRVBzPSwyH/swFTcdrxz0qa2XOrmqZZHzxS1ccYa2KN/lZq/mxucLFqlqRI4zROa6cOaZAQcADmTjllWi/h+2HHh0rISORiGk/jmvMcN28nMjZJB2L8D8YU8L9VznxVdotkAt0MZbpmhh8+JNmvI+b6YW1/Dqu9Flsgo6ufRGHmtw0Rg7HSX8ifZW2KOnBB8CLOMZLAvYNwABsB0AW8Iy+SuK4Y4IFCZJbsY55HY0tDicepOBkrqobZQwnMdJAD38MZ+63EVSaRbt8iNgGAxoHsvl0MTvmiYfdoXoi1iLqOHLJUuLp7TRPcebjA3J+uFrW3hDh+1VvxlttNNTVGMeJE3SVOogwFlEQEREBERAREQEREBERAREQEREBERAREQEREBERAREQEREBERAREQf//Z;" vertex="1" parent="1">
                    <mxGeometry x="480" y="560" width="194" height="129" as="geometry"/>
                </mxCell>
                <mxCell id="5" value="This is a description of a text" style="text;html=1;strokeColor=none;fillColor=none;align=center;verticalAlign=middle;whiteSpace=wrap;rounded=0;" vertex="1" parent="1">
                    <mxGeometry x="674" y="200" width="126" height="100" as="geometry"/>
                </mxCell>
                <mxCell id="6" style="edgeStyle=orthogonalEdgeStyle;rounded=0;orthogonalLoop=1;jettySize=auto;html=1;" edge="1" parent="1" source="7" target="8">
                    <mxGeometry relative="1" as="geometry"/>
                </mxCell>
                <mxCell id="7" value="" style="shape=image;verticalLabelPosition=bottom;labelBackgroundColor=default;verticalAlign=top;aspect=fixed;imageAspect=0;image=data:image/jpeg,/9j/4AAQSkZJRgABAQAAAQABAAD/2wCEAAkGBwgHBgkIBwgKCgkLDRYPDQwMDRsUFRAWIB0iIiAdHx8kKDQsJCYxJx8fLT0tMTU3Ojo6Iys/RD84QzQ5OjcBCgoKDQwNGg8PGjclHyU3Nzc3Nzc3Nzc3Nzc3Nzc3Nzc3Nzc3Nzc3Nzc3Nzc3Nzc3Nzc3Nzc3Nzc3Nzc3Nzc3N//AABEIAIEAwgMBIgACEQEDEQH/xAAcAAEAAgMBAQEAAAAAAAAAAAAABQcBBAYDAgj/xAA0EAABAwMCBAQFAgYDAAAAAAABAAIDBAUREiEGMUFREyJhcRQygZGhB7EVQsHR4fAjYvH/xAAYAQEBAQEBAAAAAAAAAAAAAAAAAgEDBP/EAB0RAQEAAgIDAQAAAAAAAAAAAAABAhESIQMxUUH/2gAMAwEAAhEDEQA/ALxREQEREBERARFr11XHQ0slTNnQwb4GTzwg2EWrbrhT3Kn8elfqZnSehaexHdbSAiwTgZOwHNaFBeKS4TyRUzy7QCdWNnAHGxQSCIiAiIgIiICIiAiIgIiICIiAiIgIiICIiAoviRpdZqjHMaXfZwKlFE8WTfD8NXKYN1ujp3Oa3u4Db84Rs9uFpL83hu6Colc51FVENnY3ctd0cB+PY+i6qPjzhl4iLbrH/wAoy0Fj/wA7bKqaiNtbSxNq2OMxxqJy4MyT0H7rS/hFS2FuI5HMEjsNI8w0nBHbfGQo5druKy+IuNaGuabVZ6kvllf4csuC0NbgEhpPMnIH3Uhwa0CpkEfyMi05x6j+yrSktnwdY+aaIySNkcDhhAOQHEtJ6DOMnqF336bVEj5blTzMcDE5vhvJ+dpz06brZS46ju0RFTmIiICIiAiIgIiICIiAiIgIiICIiAiIgKP4gidPY6+JgJc6B+AOZ2UgvmRoexzXDLSMFBRJonS0zYbhJ5ngSEhwzEd/IW4wQMg79QtuGR0LXUU8glNM9xjlwfPEQDjkOR1Y7chsp6K2UNmuk1HPSM0OJLZnNyHb7avVe1y4egroaUimdM9koLpmPbl0f8zT3B/8IXG42+neZT9c3FA2edt1qXanPc8xU7XadLCSGjV2xpwNxz6ldd+nEdZDcLpDVZe0NYWv2Ld8+XPUjl9Ata7RUFO0xmn1veMR07MeXG23b2Xj+nF4paa711q8kbJpNUJDjpLwN2jP+591uM17Zn3OlnIsZWV1cRERAREQEREBERAREQEREBERAREQEREBY6LKweSCueK6zXepRBMWSRO0mM4LXkDnjmop1bc4oiIgWFzTuRgArc4st7ouKKio0PkikAfhhBcx2NyBzx1WrPcZvB8Oki8QBo8r+Y7LjluO+M3HO3Gqr3MljBLp3NBHhgAZzzJ+6jqZrqOnlmMzmSRsMrS3mJOhHtt9F0VPBcJWSSS00NtpiRlxIc530URxBTyQxRw0dE58XNz5BiSV3fHRv5JW4lWnwbxxQ3/FFPJHBdGt80TnDEoG2pnf25j8rrhuvzLSU74qqg8QmOobMS0tO7XY5gj7q+OBr0682Jj6iTXVwHwpzjm4dfqF0lcspp0aIi1IiIgIiICIiAiIgIiICIiAiIgIiICIiDkeNKYQ1MFx0DDYnRudtnJIwN/qudjqKeXXUDfw2and3csYXdcTUbqy0yMYAXsIeAeuOf4yq51vpqgRMjOgO3bjpyXn8s7ejxXp5suUM4mfPCaWqY4tbG5uefXIz+yjL5NcaU6I4zUTS7a2Za1h9eym6qifJPFNC97JwdTHNwcjG4OFGXCz3iaJzJLhH4MnzPxhzPp/lbhfwy+uVtLZ4rg2WtaGuc9zWsccg5PMYVhcAVYt9++Fc4htUTGMfKXYLh+35VfUZe24RtlyfhnGPU7q4EDOfY5XS0Uj6eSjrYcamyvnbvnBx/ldIirvRaVnr47pa6SvhyI6iJsgB6ZHJbqtyEREBERAREQEREBERAREQEREBERAREQfLxqBB5EYVL1sVwtl6NPc3RujL3RxyNJ6/LnJPdXSVVfHN6t9PWGO5QuLJXlocG7AA4znvuoym14XVeN0mqKG3VVXQQ+NPs5kerAJcB6eq5qqh41ki1SPjeCdWhrxtn3+y2rdxRA2qip6qoEkReAyVoHy9iOi3L5xDDPQyRWplQ+QuAMmnSwDvk7KZjqrtQj7bWeFCLg2EzyvPiOY7fRjOD3/AKKTAMtAZI2+G1zBDDnqANyPfCjLXR00ro52uknkdkSOkfqDyMbAnAIG6maisgMhY2UNnI0NfkEMHLYbAK2LH/T5+vhimHJjHvYwdmhxAC6VQPBLI4+GqJsTS0Yd5S4OwdRzuFPKnOiIiMEREBERAREQEREBERAREQEREBERBgqv7nRUc1bPFXRMlLZMsa8AgF3L6rvZpWQsL5XhjBzJVe3i8U0nE/w9A6OcSROcXsbqMTw3t16/dRkvBzFw4Fs7rlTupmvjfLOPKHEgNzk4HsCpG42d5pTQ2mSnNJq1OEzScb5wcf26Lcip6Snr6erbFM2Vwc8yPLiWjSSRj+i+K+2QVUjZpJ5mSmMF3gOdHy/3qslWh3WuokmdTzVD5GsaGksaGDPYbbDc4WlcaGWFp0yxsDDpYNGs79h1d7qTs91gnilkknLGZ+fBLvT1J/soriXiVksLKSkjqo48+UtIY9/LcnmpxnfbcvXTvv0rrXyUVXRSMmb4Lw9vjY1HVz2HLcLsLhdbfbYnS3Ctp6aNoyXSyBuPuvz3QzXOlilZQVNRQvqMHTTSOD5QD1ccHr0UnRWqdj4qyTcTODZhOc9eeSfRdduel2UF9tNxj10Fzo6hveKZrv2KkA4EZByPRUNQW9trv2qhaRBICX4wAT03XhYLjX0fF9dPRz1LYGMOYvGOjPUYzgrWcX6AysOe1oLnEADmSqNtP6n3mWsufj1IeynJEUXhN3O/M46LgLtxZxVxdXR0bq2snfM7TFSwEtBPo1uM/VGafquGtpaiQxwVMMj2jJayQEgewWwqW/TD9KrxZ7vS329V3w0kQ1fCQvLnOyOT3A4x6DPJXSOSMEREBERAREQEREBERAQ8kRBx/G0lQ+pp6Y08ktK5pcfDhc/cdyAcLjhSxWWM/CwNjq5hre6YHJ2zge3JXAWgrVqLZRVBzPSwyH/swFTcdrxz0qa2XOrmqZZHzxS1ccYa2KN/lZq/mxucLFqlqRI4zROa6cOaZAQcADmTjllWi/h+2HHh0rISORiGk/jmvMcN28nMjZJB2L8D8YU8L9VznxVdotkAt0MZbpmhh8+JNmvI+b6YW1/Dqu9Flsgo6ufRGHmtw0Rg7HSX8ifZW2KOnBB8CLOMZLAvYNwABsB0AW8Iy+SuK4Y4IFCZJbsY55HY0tDicepOBkrqobZQwnMdJAD38MZ+63EVSaRbt8iNgGAxoHsvl0MTvmiYfdoXoi1iLqOHLJUuLp7TRPcebjA3J+uFrW3hDh+1VvxlttNNTVGMeJE3SVOogwFlEQEREBERAREQEREBERAREQEREBERAREQEREBERAREQEREBERAREQf//Z;" vertex="1" parent="1">
                    <mxGeometry x="1240" y="190" width="194" height="129" as="geometry"/>
                </mxCell>
                <mxCell id="8" value="" style="shape=image;verticalLabelPosition=bottom;labelBackgroundColor=default;verticalAlign=top;aspect=fixed;imageAspect=0;image=data:image/jpeg,/9j/4AAQSkZJRgABAQAAAQABAAD/2wCEAAkGBwgHBgkIBwgKCgkLDRYPDQwMDRsUFRAWIB0iIiAdHx8kKDQsJCYxJx8fLT0tMTU3Ojo6Iys/RD84QzQ5OjcBCgoKDQwNGg8PGjclHyU3Nzc3Nzc3Nzc3Nzc3Nzc3Nzc3Nzc3Nzc3Nzc3Nzc3Nzc3Nzc3Nzc3Nzc3Nzc3Nzc3N//AABEIAIEAwgMBIgACEQEDEQH/xAAcAAEAAgMBAQEAAAAAAAAAAAAABQcBBAYDAgj/xAA0EAABAwMCBAQFAgYDAAAAAAABAAIDBAUREiEGMUFREyJhcRQygZGhB7EVQsHR4fAjYvH/xAAYAQEBAQEBAAAAAAAAAAAAAAAAAgEDBP/EAB0RAQEAAgIDAQAAAAAAAAAAAAABAhESIQMxUUH/2gAMAwEAAhEDEQA/ALxREQEREBERARFr11XHQ0slTNnQwb4GTzwg2EWrbrhT3Kn8elfqZnSehaexHdbSAiwTgZOwHNaFBeKS4TyRUzy7QCdWNnAHGxQSCIiAiIgIiICIiAiIgIiICIiAiIgIiICIiAoviRpdZqjHMaXfZwKlFE8WTfD8NXKYN1ujp3Oa3u4Db84Rs9uFpL83hu6Colc51FVENnY3ctd0cB+PY+i6qPjzhl4iLbrH/wAoy0Fj/wA7bKqaiNtbSxNq2OMxxqJy4MyT0H7rS/hFS2FuI5HMEjsNI8w0nBHbfGQo5druKy+IuNaGuabVZ6kvllf4csuC0NbgEhpPMnIH3Uhwa0CpkEfyMi05x6j+yrSktnwdY+aaIySNkcDhhAOQHEtJ6DOMnqF336bVEj5blTzMcDE5vhvJ+dpz06brZS46ju0RFTmIiICIiAiIgIiICIiAiIgIiICIiAiIgKP4gidPY6+JgJc6B+AOZ2UgvmRoexzXDLSMFBRJonS0zYbhJ5ngSEhwzEd/IW4wQMg79QtuGR0LXUU8glNM9xjlwfPEQDjkOR1Y7chsp6K2UNmuk1HPSM0OJLZnNyHb7avVe1y4egroaUimdM9koLpmPbl0f8zT3B/8IXG42+neZT9c3FA2edt1qXanPc8xU7XadLCSGjV2xpwNxz6ldd+nEdZDcLpDVZe0NYWv2Ld8+XPUjl9Ata7RUFO0xmn1veMR07MeXG23b2Xj+nF4paa711q8kbJpNUJDjpLwN2jP+591uM17Zn3OlnIsZWV1cRERAREQEREBERAREQEREBERAREQEREBY6LKweSCueK6zXepRBMWSRO0mM4LXkDnjmop1bc4oiIgWFzTuRgArc4st7ouKKio0PkikAfhhBcx2NyBzx1WrPcZvB8Oki8QBo8r+Y7LjluO+M3HO3Gqr3MljBLp3NBHhgAZzzJ+6jqZrqOnlmMzmSRsMrS3mJOhHtt9F0VPBcJWSSS00NtpiRlxIc530URxBTyQxRw0dE58XNz5BiSV3fHRv5JW4lWnwbxxQ3/FFPJHBdGt80TnDEoG2pnf25j8rrhuvzLSU74qqg8QmOobMS0tO7XY5gj7q+OBr0682Jj6iTXVwHwpzjm4dfqF0lcspp0aIi1IiIgIiICIiAiIgIiICIiAiIgIiICIiDkeNKYQ1MFx0DDYnRudtnJIwN/qudjqKeXXUDfw2and3csYXdcTUbqy0yMYAXsIeAeuOf4yq51vpqgRMjOgO3bjpyXn8s7ejxXp5suUM4mfPCaWqY4tbG5uefXIz+yjL5NcaU6I4zUTS7a2Za1h9eym6qifJPFNC97JwdTHNwcjG4OFGXCz3iaJzJLhH4MnzPxhzPp/lbhfwy+uVtLZ4rg2WtaGuc9zWsccg5PMYVhcAVYt9++Fc4htUTGMfKXYLh+35VfUZe24RtlyfhnGPU7q4EDOfY5XS0Uj6eSjrYcamyvnbvnBx/ldIirvRaVnr47pa6SvhyI6iJsgB6ZHJbqtyEREBERAREQEREBERAREQEREBERAREQfLxqBB5EYVL1sVwtl6NPc3RujL3RxyNJ6/LnJPdXSVVfHN6t9PWGO5QuLJXlocG7AA4znvuoym14XVeN0mqKG3VVXQQ+NPs5kerAJcB6eq5qqh41ki1SPjeCdWhrxtn3+y2rdxRA2qip6qoEkReAyVoHy9iOi3L5xDDPQyRWplQ+QuAMmnSwDvk7KZjqrtQj7bWeFCLg2EzyvPiOY7fRjOD3/AKKTAMtAZI2+G1zBDDnqANyPfCjLXR00ro52uknkdkSOkfqDyMbAnAIG6maisgMhY2UNnI0NfkEMHLYbAK2LH/T5+vhimHJjHvYwdmhxAC6VQPBLI4+GqJsTS0Yd5S4OwdRzuFPKnOiIiMEREBERAREQEREBERAREQEREBERBgqv7nRUc1bPFXRMlLZMsa8AgF3L6rvZpWQsL5XhjBzJVe3i8U0nE/w9A6OcSROcXsbqMTw3t16/dRkvBzFw4Fs7rlTupmvjfLOPKHEgNzk4HsCpG42d5pTQ2mSnNJq1OEzScb5wcf26Lcip6Snr6erbFM2Vwc8yPLiWjSSRj+i+K+2QVUjZpJ5mSmMF3gOdHy/3qslWh3WuokmdTzVD5GsaGksaGDPYbbDc4WlcaGWFp0yxsDDpYNGs79h1d7qTs91gnilkknLGZ+fBLvT1J/soriXiVksLKSkjqo48+UtIY9/LcnmpxnfbcvXTvv0rrXyUVXRSMmb4Lw9vjY1HVz2HLcLsLhdbfbYnS3Ctp6aNoyXSyBuPuvz3QzXOlilZQVNRQvqMHTTSOD5QD1ccHr0UnRWqdj4qyTcTODZhOc9eeSfRdduel2UF9tNxj10Fzo6hveKZrv2KkA4EZByPRUNQW9trv2qhaRBICX4wAT03XhYLjX0fF9dPRz1LYGMOYvGOjPUYzgrWcX6AysOe1oLnEADmSqNtP6n3mWsufj1IeynJEUXhN3O/M46LgLtxZxVxdXR0bq2snfM7TFSwEtBPo1uM/VGafquGtpaiQxwVMMj2jJayQEgewWwqW/TD9KrxZ7vS329V3w0kQ1fCQvLnOyOT3A4x6DPJXSOSMEREBERAREQEREBERAQ8kRBx/G0lQ+pp6Y08ktK5pcfDhc/cdyAcLjhSxWWM/CwNjq5hre6YHJ2zge3JXAWgrVqLZRVBzPSwyH/swFTcdrxz0qa2XOrmqZZHzxS1ccYa2KN/lZq/mxucLFqlqRI4zROa6cOaZAQcADmTjllWi/h+2HHh0rISORiGk/jmvMcN28nMjZJB2L8D8YU8L9VznxVdotkAt0MZbpmhh8+JNmvI+b6YW1/Dqu9Flsgo6ufRGHmtw0Rg7HSX8ifZW2KOnBB8CLOMZLAvYNwABsB0AW8Iy+SuK4Y4IFCZJbsY55HY0tDicepOBkrqobZQwnMdJAD38MZ+63EVSaRbt8iNgGAxoHsvl0MTvmiYfdoXoi1iLqOHLJUuLp7TRPcebjA3J+uFrW3hDh+1VvxlttNNTVGMeJE3SVOogwFlEQEREBERAREQEREBERAREQEREBERAREQEREBERAREQEREBERAREQf//Z;" vertex="1" parent="1">
                    <mxGeometry x="1240" y="550" width="194" height="129" as="geometry"/>
                </mxCell>
            </root>
        </mxGraphModel>
    </diagram>
</mxfile>